<?xml version="1.0" encoding="utf-8"?>
<!-- Generator: Adobe Illustrator 16.0.0, SVG Export Plug-In . SVG Version: 6.00 Build 0)  -->
<!DOCTYPE svg PUBLIC "-//W3C//DTD SVG 1.1//EN" "http://www.w3.org/Graphics/SVG/1.1/DTD/svg11.dtd">
<svg version="1.1" id="레이어_1" xmlns="http://www.w3.org/2000/svg" xmlns:xlink="http://www.w3.org/1999/xlink" x="0px"
	 y="0px" width="75.667px" height="87.833px" viewBox="0 0 75.667 87.833" enable-background="new 0 0 75.667 87.833"
	 xml:space="preserve">
<g id="레이어_1_1_">
	<title>Icon-Extra</title>
	<path fill="#E67461" d="M48.458,32.647c2.912,0.047,5.311-2.275,5.357-5.187c0.023-1.463-0.561-2.87-1.615-3.886
		c-10.992-11.146-28.94-11.271-40.086-0.277c-0.094,0.092-0.187,0.186-0.278,0.277c-2.082,2.052-2.107,5.402-0.058,7.484
		c2.051,2.082,5.401,2.106,7.483,0.057l0,0c7.133-6.774,18.321-6.774,25.455,0C45.712,32.102,47.058,32.653,48.458,32.647z"/>
	<path fill="#E67461" d="M9.397,21.309C21.847,8.786,42.091,8.725,54.617,21.173c0.045,0.045,0.09,0.09,0.135,0.136
		c2.066,2.066,5.418,2.066,7.484,0s2.066-5.416,0-7.484c-16.607-16.51-43.431-16.51-60.038,0c-1.717,2.354-1.201,5.652,1.152,7.367
		C5.141,22.497,7.558,22.544,9.397,21.309z"/>
	<path fill="#E67461" d="M21.643,33.78c-2.034,2.099-1.983,5.449,0.114,7.483c2.098,2.035,5.447,1.983,7.482-0.112
		c1.569-1.558,4.101-1.558,5.67,0c2.035,2.098,5.385,2.147,7.483,0.112c2.1-2.034,2.148-5.386,0.113-7.483
		C36.722,28.075,27.428,28.075,21.643,33.78z"/>
	<path fill="#563624" d="M63.824,48.01H8.718c-2.912,0-5.271,2.361-5.271,5.271l0,0v6.691c0.03,14.576,11.84,26.387,26.418,26.418
		h4.195c9.731-0.047,18.647-5.453,23.188-14.061h6.633c5.855,0,10.604-4.746,10.604-10.602l0,0v-3.346
		C74.357,52.598,69.613,47.977,63.824,48.01z M60.478,61.958v-3.346h3.346v3.346H60.478z"/>
</g>
</svg>
