<?xml version="1.0" encoding="utf-8"?>
<!-- Generator: Adobe Illustrator 16.0.0, SVG Export Plug-In . SVG Version: 6.00 Build 0)  -->
<!DOCTYPE svg PUBLIC "-//W3C//DTD SVG 1.1//EN" "http://www.w3.org/Graphics/SVG/1.1/DTD/svg11.dtd">
<svg version="1.1" xmlns="http://www.w3.org/2000/svg" xmlns:xlink="http://www.w3.org/1999/xlink" x="0px" y="0px"
	 width="75.667px" height="87.833px" viewBox="132.58 46.719 75.667 87.833" enable-background="new 132.58 46.719 75.667 87.833"
	 xml:space="preserve">
<g id="레이어_1">
	<title>Icon-Extra</title>
	<path fill="#E67461" d="M181.135,79.369c2.912,0.048,5.311-2.274,5.357-5.186c0.024-1.463-0.561-2.87-1.615-3.885
		c-10.992-11.146-28.94-11.271-40.087-0.278c-0.093,0.092-0.186,0.185-0.278,0.278c-2.082,2.051-2.107,5.401-0.057,7.483
		s5.401,2.107,7.483,0.057l0,0c7.133-6.774,18.322-6.774,25.455,0C178.388,78.825,179.734,79.376,181.135,79.369z"/>
	<path fill="#E67461" d="M142.074,68.031c12.449-12.523,32.694-12.584,45.219-0.135c0.045,0.045,0.09,0.09,0.135,0.135
		c2.066,2.067,5.417,2.067,7.484,0c2.066-2.066,2.066-5.416,0-7.483c-16.607-16.511-43.431-16.511-60.038,0
		c-1.716,2.353-1.2,5.651,1.153,7.367C137.817,69.22,140.234,69.267,142.074,68.031z"/>
	<path fill="#E67461" d="M154.319,80.503c-2.035,2.098-1.984,5.448,0.114,7.483c2.098,2.035,5.448,1.984,7.483-0.113
		c1.569-1.557,4.1-1.557,5.669,0c2.035,2.098,5.385,2.148,7.483,0.113c2.099-2.035,2.149-5.386,0.114-7.483
		C169.398,74.797,160.104,74.797,154.319,80.503z"/>
	<path fill="#563624" d="M196.499,94.733h-55.105c-2.912,0-5.272,2.361-5.272,5.272l0,0v6.69
		c0.031,14.577,11.841,26.388,26.419,26.418h4.195c9.731-0.047,18.646-5.452,23.187-14.06h6.634c5.854,0,10.602-4.746,10.602-10.602
		l0,0v-3.345C207.033,99.32,202.289,94.7,196.499,94.733z M166.735,122.626h-4.195c-8.767,0-15.874-7.107-15.874-15.874v-1.418
		h35.887v1.418c-0.031,8.723-7.095,15.786-15.817,15.817V122.626z M193.154,108.68v-3.346h3.345v3.346H193.154z"/>
	<text transform="matrix(1 0 0 1 79.373 266.4534)" font-family="'Arial-BoldMT'" font-size="28.3463">Created by Wahyu Adam Pratama</text>
	<text transform="matrix(1 0 0 1 79.373 294.801)" font-family="'Arial-BoldMT'" font-size="28.3463">from the Noun Project</text>
</g>
<g id="레이어_2">
	<polygon fill="#563624" points="140.705,101.885 187.83,101.885 183.83,120.635 170.414,125.51 153.955,124.26 144.705,113.698 	
		"/>
</g>
</svg>
